<?xml version="1.0" encoding="UTF-8"?> <svg xmlns="http://www.w3.org/2000/svg" version="1.1" id="Capa_1" x="0" y="0" viewBox="0 0 178.6 143.3" style="enable-background:new 0 0 178.6 143.3" xml:space="preserve" width="120"><style>.st0{fill:#f5f5f5}</style><path class="st0" d="M17.2 124.9c0-.3.2-.5.5-.5h6.2c3.3 0 5.9 2.7 5.9 5.9 0 3.3-2.7 6-5.9 6h-3.3v6.2c0 .3-.2.5-.5.5h-2.4c-.3 0-.5-.2-.5-.5v-17.6zm6.5 8.1c1.5 0 2.7-1.2 2.7-2.8 0-1.5-1.2-2.6-2.7-2.6h-3.1v5.3h3.1zM31.8 140.4l1-1.6c.2-.4.7-.4.9-.2.1.1 2.3 1.6 4 1.6 1.4 0 2.4-.9 2.4-2 0-1.4-1.1-2.3-3.4-3.2-2.5-1-5-2.6-5-5.7 0-2.4 1.8-5.1 6-5.1 2.7 0 4.8 1.4 5.3 1.8.3.2.3.6.2.9l-1 1.5c-.2.3-.6.5-.9.3-.2-.1-2.2-1.5-3.7-1.5s-2.3 1-2.3 1.9c0 1.2 1 2.1 3.1 3 2.6 1 5.5 2.6 5.5 6 0 2.7-2.4 5.3-6.1 5.3-3.3 0-5.3-1.6-5.8-2.1-.3-.4-.5-.5-.2-.9zM47.2 124.9c0-.3.2-.5.5-.5h2.5c.3 0 .5.2.5.5v17.6c0 .3-.2.5-.5.5h-2.5c-.3 0-.5-.2-.5-.5v-17.6zM63.8 124.2c2.7 0 4.6.8 6.4 2.5.2.2.2.5 0 .7l-1.6 1.7c-.2.2-.5.2-.7 0-1.1-1-2.6-1.6-4.1-1.6-3.4 0-5.9 2.8-5.9 6.2 0 3.3 2.5 6.1 5.9 6.1 1.6 0 2.9-.6 4.1-1.5.2-.2.5-.2.7 0l1.6 1.7c.2.2.2.5 0 .7-1.8 1.8-4.1 2.6-6.4 2.6-5.3 0-9.6-4.2-9.6-9.5 0-5.4 4.3-9.6 9.6-9.6zM81.8 124.2c5.3 0 9.5 4.3 9.5 9.6s-4.2 9.5-9.5 9.5-9.5-4.2-9.5-9.5c0-5.4 4.2-9.6 9.5-9.6zm0 15.6c3.3 0 6.1-2.7 6.1-6.1 0-3.3-2.8-6.1-6.1-6.1s-6.1 2.8-6.1 6.1c0 3.4 2.8 6.1 6.1 6.1zm-2.5-17.4-.5-.9c-.1-.2 0-.4.2-.5l4.3-2.6c.3-.2.6-.2.7.1l.7 1.4c.2.3.1.6-.2.7l-4.6 2c-.3.2-.5.1-.6-.2zM94.8 124.9c0-.3.2-.5.5-.5h2.4c.3 0 .5.2.5.5v14.9h6.8c.3 0 .5.2.5.5v2.2c0 .3-.2.5-.5.5h-9.7c-.3 0-.5-.2-.5-.5v-17.6zM116.2 124.2c5.3 0 9.5 4.3 9.5 9.6s-4.2 9.5-9.5 9.5-9.5-4.2-9.5-9.5c0-5.4 4.2-9.6 9.5-9.6zm0 15.6c3.3 0 6.1-2.7 6.1-6.1 0-3.3-2.8-6.1-6.1-6.1s-6.1 2.8-6.1 6.1c0 3.4 2.8 6.1 6.1 6.1zM137.4 124.2c2.4 0 4.7.9 6.5 2.5.2.2.2.5 0 .7l-1.6 1.7c-.2.2-.5.2-.7 0-1.1-1-2.5-1.5-4-1.5-3.3 0-5.9 2.8-5.9 6.2 0 3.3 2.6 6.1 6 6.1 1.5 0 2.6-.5 3.2-.7v-2.3h-2.1c-.3 0-.5-.2-.5-.5v-2.1c0-.3.2-.5.5-.5h5.1c.3 0 .5.2.5.5v6.8c0 .2-.1.3-.2.4 0 0-2.7 1.7-6.6 1.7-5.3 0-9.5-4.2-9.5-9.5-.2-5.3 4.1-9.5 9.3-9.5zM145.7 142.3l8.2-17.8c.1-.2.2-.3.5-.3h.3c.3 0 .4.1.5.3l8.2 17.8c.2.3-.1.7-.5.7h-2.3c-.4 0-.6-.2-.8-.5l-1.3-2.9h-7.9l-1.3 2.9c-.1.3-.3.5-.8.5h-2.3c-.4 0-.6-.4-.5-.7zm11.5-5.7-2.7-5.8h-.1l-2.6 5.8h5.4zM126.2 42.5c-.3 1.1-1.5 1.7-2.5 1.2l-16.3-7.1c-1.2-.7-2.1-2.1-2.1-3.6s.8-2.9 2.1-3.6l16.3-7.1c1-.4 2.2.1 2.5 1.2.3 1 .5 2.1.7 3.2.1.8-.3 1.7-1.1 2l-6.9 3c-.1 0-.2.1-.2.1-.4.2-.7.7-.7 1.2s.3 1 .7 1.2l.1.1 6.9 3c.8.3 1.2 1.2 1.1 2-.1 1.2-.3 2.2-.6 3.2zM79.8 70c-1.1-.3-1.7-1.5-1.2-2.5l7.1-16.3c.7-1.2 2.1-2.1 3.6-2.1s2.9.8 3.6 2.1l7.1 16.3c.4 1-.1 2.2-1.2 2.5-1 .3-2.1.5-3.2.7-.8.1-1.7-.3-2-1.1l-3-6.9c0-.1-.1-.2-.1-.2-.2-.4-.7-.7-1.2-.7s-1 .3-1.2.7l-.1.1-3 6.9c-.3.8-1.2 1.2-2 1.1-1.1-.2-2.1-.4-3.2-.6zM52.4 23.6c.3-1.1 1.5-1.7 2.5-1.2l16.3 7.1c1.2.7 2.1 2.1 2.1 3.6s-.8 2.9-2.1 3.6L55 43.8c-1 .4-2.2-.1-2.5-1.2-.3-1-.5-2.1-.7-3.2-.1-.8.3-1.7 1.1-2l6.9-3c.1 0 .2-.1.2-.1.4-.2.7-.7.7-1.2s-.3-1-.7-1.2l-.1-.1-6.9-3c-.8-.3-1.2-1.2-1.1-2 0-1.1.3-2.2.5-3.2z"></path><g><path class="st0" d="M35.8 107c0-.3.2-.5.5-.5h.7c.2 0 .4.1.4.3l.3.9c.2-.2 1.6-1.5 3.7-1.5 3.2 0 4.4 2.3 4.4 5v5.3c0 .3-.2.5-.5.5h-1.5c-.3 0-.5-.2-.5-.5v-5.4c0-1.7-.8-2.6-2.2-2.6-1.7 0-2.8 1.2-2.9 1.6v6.5c0 .3-.2.5-.6.5h-1.4c-.3 0-.5-.2-.5-.5V107zM3.3 98.7c.1-.2.3-.4.5-.4h.4c.2 0 .4.1.5.3l5.5 13.6h.1l5.5-13.6c.1-.2.3-.3.5-.3h.4c.2 0 .4.2.5.4l3.3 17.8c.1.4-.1.6-.5.6h-1.7c-.2 0-.5-.2-.5-.4l-2-11.9h-.1L10.9 117c-.1.2-.2.3-.5.3H10c-.2 0-.4-.1-.5-.3l-4.8-12.2h-.1l-1.9 11.9c0 .2-.3.4-.5.4H.5c-.4 0-.6-.2-.5-.6l3.3-17.8zM27.8 106.2c3 0 5.4 2.5 5.4 5.5s-2.4 5.6-5.4 5.6-5.4-2.5-5.4-5.6c0-2.9 2.4-5.5 5.4-5.5zm0 8.9c1.7 0 3-1.5 3-3.3 0-1.8-1.3-3.2-3-3.2s-3 1.5-3 3.2c0 1.8 1.3 3.3 3 3.3zM49.8 108.7h-1.1c-.3 0-.5-.2-.5-.5V107c0-.3.2-.5.5-.5h1.1v-2.9c0-.3.2-.5.5-.5h1.5c.3 0 .5.2.5.5v3H55c.3 0 .5.2.5.5v1.2c0 .3-.2.5-.5.5h-2.7v5.3c0 .9.3 1.1.8 1.1.6 0 1.3-.3 1.6-.5.3-.2.5 0 .6.2l.5 1.2c.1.3 0 .5-.2.6-.3.2-1.8.8-3.1.8-2.1 0-2.7-1.3-2.7-3.2v-5.6zM57.7 115.7l.6-1c.1-.2.4-.3.7-.1 0 0 1.2.7 2.5.7.8 0 1.3-.3 1.3-.9 0-.7-.6-1.1-2-1.7-1.6-.7-3-1.7-3-3.5 0-1.3 1.1-2.9 3.6-2.9 1.5 0 2.6.5 3.1.8.2.2.4.5.2.8l-.5.9c-.1.2-.5.3-.7.2 0 0-1.2-.6-2.2-.6-.9 0-1.2.4-1.2.8 0 .7.7 1 1.7 1.4 1.9.8 3.5 1.7 3.5 3.7 0 1.6-1.6 3.1-3.9 3.1-1.8 0-2.9-.6-3.5-1.1-.2-.1-.3-.4-.2-.6zM72.4 106.2c2.8 0 4.9 2.1 4.9 4.9 0 .2 0 .5-.1.7 0 .3-.2.5-.5.5h-7.2c.1 1.4 1.3 2.8 3 2.8 1 0 1.8-.4 2.4-.8.3-.2.5-.3.7 0l.7 1c.2.2.3.4-.1.7-.8.7-2.1 1.3-3.9 1.3-3.2 0-5.3-2.5-5.3-5.6.1-2.9 2.2-5.5 5.4-5.5zm2.4 4.4c-.1-1.3-1.1-2.4-2.4-2.4-1.4 0-2.5 1-2.7 2.4h5.1zM79.8 107c0-.3.2-.5.5-.5h.8c.2 0 .4.2.5.4l.3.9c.2-.3 1.2-1.5 3.1-1.5 1 0 2.2.3 1.9 1l-.6 1.3c-.1.3-.4.3-.6.2-.2-.1-.6-.2-.9-.2-1.5 0-2.3 1.1-2.4 1.3v6.7c0 .5-.3.5-.7.5h-1.3c-.3 0-.5-.2-.5-.5V107zM88.7 107c0-.3.2-.5.5-.5h.8c.2 0 .4.2.5.4l.3.9c.2-.3 1.2-1.5 3.1-1.5 1 0 2.2.3 1.9 1l-.6 1.3c-.1.3-.4.3-.6.2-.2-.1-.6-.2-.9-.2-1.5 0-2.3 1.1-2.4 1.3v6.7c0 .5-.3.5-.7.5h-1.3c-.3 0-.5-.2-.5-.5V107zM101.1 110.4c1.1 0 2.1.3 2.1.3 0-1.7-.3-2.3-1.6-2.3-1.2 0-2.4.3-3 .5-.3.1-.5-.1-.6-.4l-.2-1c-.1-.3.1-.5.3-.6.2-.1 1.7-.6 3.7-.6 3.4 0 3.7 2.1 3.7 4.7v5.6c0 .3-.2.5-.5.5h-.7c-.2 0-.3-.1-.5-.4l-.3-.7c-.6.6-1.6 1.4-3.3 1.4-2 0-3.4-1.4-3.4-3.6 0-1.9 1.6-3.4 4.3-3.4zm-.3 5.1c1.1 0 2.1-.8 2.4-1.3v-1.7c-.2-.1-.9-.4-1.9-.4-1.3 0-2.1.7-2.1 1.8 0 .8.6 1.6 1.6 1.6zM109.5 108.7h-1.1c-.3 0-.5-.2-.5-.5V107c0-.3.2-.5.5-.5h1.1v-2.9c0-.3.2-.5.5-.5h1.5c.3 0 .5.2.5.5v3h2.7c.3 0 .5.2.5.5v1.2c0 .3-.2.5-.5.5H112v5.3c0 .9.3 1.1.8 1.1.6 0 1.3-.3 1.6-.5.3-.2.5 0 .6.2l.5 1.2c.1.3 0 .5-.2.6-.3.2-1.8.8-3.1.8-2.1 0-2.7-1.3-2.7-3.2v-5.6zM124.7 99c0-.3.2-.5.5-.5h6c3.3 0 5.9 2.7 5.9 5.9 0 3.3-2.7 6-5.9 6h-3.8v6.2c0 .3-.2.5-.5.5h-1.7c-.3 0-.5-.2-.5-.5V99zm6.4 8.8c1.8 0 3.4-1.5 3.4-3.4 0-1.8-1.5-3.2-3.4-3.2h-3.7v6.6h3.7zM143.2 106.2c2.8 0 4.9 2.1 4.9 4.9 0 .2 0 .5-.1.7 0 .3-.2.5-.5.5h-7.2c.1 1.4 1.3 2.8 3 2.8 1 0 1.8-.4 2.4-.8.3-.2.5-.3.7 0l.7 1c.2.2.3.4-.1.7-.8.7-2.1 1.3-3.9 1.3-3.2 0-5.3-2.5-5.3-5.6.1-2.9 2.2-5.5 5.4-5.5zm-2.5-3.6-.4-.8c-.1-.2 0-.4.2-.5l4.2-2.4c.2-.1.6-.2.7.1l.6 1.2c.1.3.1.5-.2.6l-4.5 1.9c-.4.2-.5.1-.6-.1zm4.9 8c-.1-1.3-1.1-2.4-2.4-2.4-1.4 0-2.5 1-2.7 2.4h5.1zM150.6 107c0-.3.2-.5.5-.5h.8c.2 0 .4.2.5.4l.3.9c.2-.3 1.2-1.5 3.1-1.5 1 0 2.2.3 1.9 1l-.6 1.3c-.1.3-.4.3-.6.2-.2-.1-.6-.2-.9-.2-1.5 0-2.3 1.1-2.4 1.3v6.7c0 .5-.3.5-.7.5h-1.3c-.3 0-.5-.2-.5-.5V107zM164 106.2c2.8 0 4.9 2.1 4.9 4.9 0 .2 0 .5-.1.7 0 .3-.2.5-.5.5h-7.2c.1 1.4 1.3 2.8 3 2.8 1 0 1.8-.4 2.4-.8.3-.2.5-.3.7 0l.7 1c.2.2.3.4-.1.7-.8.7-2.1 1.3-3.9 1.3-3.2 0-5.3-2.5-5.3-5.6.1-2.9 2.2-5.5 5.4-5.5zm2.4 4.4c-.1-1.3-1.1-2.4-2.4-2.4-1.4 0-2.5 1-2.7 2.4h5.1zM170.5 116.3l4.5-7.6h-3.8c-.3 0-.5-.2-.5-.5V107c0-.3.2-.5.5-.5h6.8c.4 0 .7.4.5.7l-4.5 7.6h3.5c.3 0 .5.2.5.5v1.2c0 .3-.2.5-.5.5H171c-.3 0-.5-.2-.5-.5v-.2zM122.1 13.7c.6 1 .1 2.2-.9 2.6l-16.6 6.5c-1.4.4-2.9 0-4-1.1s-1.5-2.6-1.1-4L106 1.1c.4-1.1 1.7-1.5 2.6-.9.9.5 1.8 1.1 2.7 1.8.7.5 1 1.4.7 2.2l-2.8 6.9c0 .1-.1.2-.1.2-.1.5 0 1 .4 1.4.4.4.9.5 1.4.4l.1-.1 7-2.8c.8-.3 1.7 0 2.2.7.8.9 1.4 1.8 1.9 2.8zM69.9.3c1-.6 2.2-.1 2.6.9L79 17.8c.4 1.4 0 2.9-1.1 4s-2.6 1.5-4 1.1l-16.6-6.5c-1.1-.4-1.5-1.7-.9-2.6.5-.9 1.1-1.8 1.8-2.7.5-.7 1.4-1 2.2-.7l6.9 2.8c.1 0 .2.1.2.1.5.1 1 0 1.4-.4.4-.4.5-.9.4-1.4l-.1-.1-2.8-7c-.3-.8 0-1.7.7-2.2 1-.8 1.9-1.4 2.8-1.9zM122.1 52.4c.6-1 .1-2.2-.9-2.6l-16.6-6.5c-1.4-.4-2.9 0-4 1.1s-1.5 2.6-1.1 4L106 65c.4 1.1 1.7 1.5 2.6.9.9-.5 1.8-1.1 2.7-1.8.7-.5 1-1.4.7-2.2l-2.8-6.9c0-.1-.1-.2-.1-.2-.1-.5 0-1 .4-1.4.4-.4.9-.5 1.4-.4l.1.1 7 2.8c.8.3 1.7 0 2.2-.7.8-.9 1.4-1.8 1.9-2.8zM69.9 65.9c1 .6 2.2.1 2.6-.9L79 48.4c.4-1.4 0-2.9-1.1-4s-2.6-1.5-4-1.1l-16.6 6.5c-1.1.4-1.5 1.7-.9 2.6.5.9 1.1 1.8 1.8 2.7.5.7 1.4 1 2.2.7l6.9-2.8c.1 0 .2-.1.2-.1.5-.1 1 0 1.4.4.4.4.5.9.4 1.4l-.1.1-2.8 7c-.3.8 0 1.7.7 2.2 1 .7 1.9 1.3 2.8 1.9zM86.1 84.6l-24.5-12c-.5-.2-.9-.6-1.3-1.1L46.6 52.4c-.5-.7-1.4-1.2-2.4-1.2-1.6 0-2.9 1.3-2.9 2.9 0 .6.2 1.2.5 1.7l13.7 19.1c.9 1.2 2.1 2.2 3.4 2.9l24.5 12c.4.2.8.3 1.3.3 1.6 0 2.9-1.3 2.9-2.9.1-1.2-.5-2.2-1.5-2.6zM92.5 84.6l24.5-12c.5-.2.9-.6 1.3-1.1L132 52.4c.5-.7 1.4-1.2 2.4-1.2 1.6 0 2.9 1.3 2.9 2.9 0 .6-.2 1.2-.5 1.7L123 74.9c-.9 1.2-2.1 2.2-3.4 2.9l-24.5 12c-.4.2-.8.3-1.3.3-1.6 0-2.9-1.3-2.9-2.9 0-1.2.7-2.2 1.6-2.6z"></path></g></svg> 