<?xml version="1.0" encoding="UTF-8"?> <svg xmlns="http://www.w3.org/2000/svg" xml:space="preserve" width="120" id="Capa_1" x="0" y="0" style="enable-background:new 0 0 120 143.3" version="1.1" viewBox="0 0 120 143.3"><style>.st0{fill:#261b09}</style><path d="M11.6 107.4c0-.2.1-.3.3-.3h4.2c2.2 0 4 1.8 4 4s-1.8 4-4 4h-2.2v4.2c0 .2-.1.3-.3.3H12c-.2 0-.3-.1-.3-.3-.1 0-.1-11.9-.1-11.9zm4.3 5.5c1 0 1.8-.8 1.8-1.9 0-1-.8-1.7-1.8-1.7h-2.1v3.6h2.1zm5.5 4.9.7-1.1c.1-.3.5-.3.6-.1.1.1 1.5 1.1 2.7 1.1.9 0 1.6-.6 1.6-1.3 0-.9-.7-1.5-2.3-2.2-1.7-.7-3.4-1.7-3.4-3.8 0-1.6 1.2-3.4 4-3.4 1.8 0 3.2.9 3.6 1.2.2.1.2.4.1.6l-.7 1c-.1.2-.4.3-.6.2-.1-.1-1.5-1-2.5-1s-1.5.7-1.5 1.3c0 .8.7 1.4 2.1 2 1.7.7 3.7 1.7 3.7 4 0 1.8-1.6 3.6-4.1 3.6-2.2 0-3.6-1.1-3.9-1.4-.2-.3-.3-.4-.1-.7zm10.3-10.4c0-.2.1-.3.3-.3h1.7c.2 0 .3.1.3.3v11.8c0 .2-.1.3-.3.3H32c-.2 0-.3-.1-.3-.3v-11.8zm11.2-.4c1.8 0 3.1.5 4.3 1.7.1.1.1.3 0 .5l-1.1 1.1c-.1.1-.3.1-.5 0-.7-.7-1.7-1.1-2.8-1.1-2.3 0-4 1.9-4 4.2 0 2.2 1.7 4.1 4 4.1 1.1 0 1.9-.4 2.8-1 .1-.1.3-.1.5 0l1.1 1.1c.1.1.1.3 0 .5-1.2 1.2-2.8 1.7-4.3 1.7-3.6 0-6.5-2.8-6.5-6.4 0-3.6 2.9-6.4 6.5-6.4zm12.1 0c3.6 0 6.4 2.9 6.4 6.5s-2.8 6.4-6.4 6.4c-3.6 0-6.4-2.8-6.4-6.4 0-3.7 2.8-6.5 6.4-6.5zm0 10.4c2.2 0 4.1-1.8 4.1-4.1 0-2.2-1.9-4.1-4.1-4.1-2.2 0-4.1 1.9-4.1 4.1 0 2.3 1.8 4.1 4.1 4.1zm-1.7-11.7-.3-.6c-.1-.1 0-.3.1-.3l2.9-1.7c.2-.1.4-.1.5.1l.5.9c.1.2.1.4-.1.5l-3.1 1.3c-.3.1-.5.1-.5-.2zm10.4 1.7c0-.2.1-.3.3-.3h1.6c.2 0 .3.1.3.3v10h4.6c.2 0 .3.1.3.3v1.5c0 .2-.1.3-.3.3H64c-.2 0-.3-.1-.3-.3v-11.8zm14.4-.4c3.6 0 6.4 2.9 6.4 6.5s-2.8 6.4-6.4 6.4c-3.6 0-6.4-2.8-6.4-6.4 0-3.7 2.8-6.5 6.4-6.5zm0 10.4c2.2 0 4.1-1.8 4.1-4.1 0-2.2-1.9-4.1-4.1-4.1-2.2 0-4.1 1.9-4.1 4.1 0 2.3 1.9 4.1 4.1 4.1zM92.3 107c1.6 0 3.2.6 4.4 1.7.1.1.1.3 0 .5l-1.1 1.1c-.1.1-.3.1-.5 0-.7-.7-1.7-1-2.7-1-2.2 0-4 1.9-4 4.2 0 2.2 1.7 4.1 4 4.1 1 0 1.7-.3 2.2-.5v-1.5h-1.4c-.2 0-.3-.1-.3-.3v-1.4c0-.2.1-.3.3-.3h3.4c.2 0 .3.1.3.3v4.6c0 .1-.1.2-.1.3 0 0-1.8 1.1-4.4 1.1-3.6 0-6.4-2.8-6.4-6.4-.1-3.7 2.8-6.5 6.3-6.5zm5.6 12.1 5.5-12c.1-.1.1-.2.3-.2h.2c.2 0 .3.1.3.2l5.5 12c.1.2-.1.5-.3.5h-1.5c-.3 0-.4-.1-.5-.3l-.9-1.9h-5.3l-.9 1.9c-.1.2-.2.3-.5.3h-1.5c-.3 0-.5-.3-.4-.5zm7.7-3.8-1.8-3.9h-.1l-1.7 3.9h3.6zM84.8 52.1c-.2.7-1 1.1-1.7.8l-11-4.8c-.8-.5-1.4-1.4-1.4-2.4s.5-1.9 1.4-2.4l11-4.8c.7-.3 1.5.1 1.7.8.2.7.3 1.4.5 2.2.1.5-.2 1.1-.7 1.3l-4.6 2c-.1 0-.1.1-.1.1-.3.1-.5.5-.5.8 0 .3.2.7.5.8l.1.1 4.6 2c.5.2.8.8.7 1.3-.2.8-.3 1.5-.5 2.2zM53.6 70.5c-.7-.2-1.1-1-.8-1.7l4.8-11c.5-.8 1.4-1.4 2.4-1.4s1.9.5 2.4 1.4l4.8 11c.3.7-.1 1.5-.8 1.7-.7.2-1.4.3-2.2.5-.5.1-1.1-.2-1.3-.7l-2-4.6c0-.1-.1-.1-.1-.1-.1-.4-.5-.6-.8-.6s-.7.2-.8.5l-.1.1-2 4.6c-.2.5-.8.8-1.3.7-.8-.1-1.4-.2-2.2-.4zM35.2 39.4c.2-.7 1-1.1 1.7-.8l11 4.8c.8.5 1.4 1.4 1.4 2.4s-.5 1.9-1.4 2.4L37 52.9c-.7.3-1.5-.1-1.7-.8-.2-.7-.3-1.4-.5-2.2-.1-.5.2-1.1.7-1.3l4.6-2c.1 0 .1-.1.1-.1.3-.1.5-.5.5-.8s-.2-.7-.5-.8l-.1-.1-4.6-2c-.5-.2-.8-.8-.7-1.3.1-.7.3-1.5.4-2.1zM24.1 95.4c0-.2.1-.3.3-.3h.5c.1 0 .3.1.3.2l.2.6c.1-.1 1.1-1 2.5-1 2.2 0 3 1.5 3 3.4v3.6c0 .2-.1.3-.3.3h-1c-.2 0-.3-.1-.3-.3v-3.6c0-1.1-.5-1.7-1.5-1.7-1.1 0-1.9.8-1.9 1.1v4.4c0 .2-.1.3-.4.3h-.9c-.2 0-.3-.1-.3-.3l-.2-6.7zM2.2 89.8c.1-.1.2-.3.3-.3h.3c.1 0 .3.1.3.2l3.7 9.1h.1l3.7-9.1c.1-.1.2-.2.3-.2h.3c.1 0 .3.1.3.3l2.2 12c.1.3-.1.4-.3.4h-1.1c-.1 0-.3-.1-.3-.3l-1.3-8h-.1l-3.2 8.2c-.1.1-.1.2-.3.2h-.4c-.1 0-.3-.1-.3-.2l-3.2-8.2h-.1l-1.3 8c0 .1-.2.3-.3.3H.3c-.3 0-.4-.1-.3-.4l2.2-12zm16.5 5.1c2 0 3.6 1.7 3.6 3.7s-1.6 3.8-3.6 3.8-3.6-1.7-3.6-3.8c0-2 1.6-3.7 3.6-3.7zm0 5.9c1.1 0 2-1 2-2.2 0-1.2-.9-2.2-2-2.2s-2 1-2 2.2c0 1.2.8 2.2 2 2.2zm14.8-4.3h-.7c-.2 0-.3-.1-.3-.3v-.8c0-.2.1-.3.3-.3h.7v-1.9c0-.2.1-.3.3-.3h1c.2 0 .3.1.3.3v2H37c.2 0 .3.1.3.3v.8c0 .2-.1.3-.3.3h-1.8v3.6c0 .6.2.7.5.7.4 0 .9-.2 1.1-.3.2-.1.3 0 .4.1l.3.8c.1.2 0 .3-.1.4-.2.1-1.2.5-2.1.5-1.4 0-1.8-.9-1.8-2.2v-3.7zm5.3 4.7.4-.7c.1-.1.3-.2.5-.1 0 0 .8.5 1.7.5.5 0 .9-.2.9-.6 0-.5-.4-.7-1.3-1.1-1.1-.5-2-1.1-2-2.4 0-.9.7-1.9 2.4-1.9 1 0 1.7.3 2.1.5.1.1.3.3.1.5l-.3.6c-.1.1-.3.2-.5.1 0 0-.8-.4-1.5-.4-.6 0-.8.3-.8.5 0 .5.5.7 1.1.9 1.3.5 2.4 1.1 2.4 2.5 0 1.1-1.1 2.1-2.6 2.1-1.2 0-1.9-.4-2.4-.7-.2.1-.3-.1-.2-.3zm9.8-6.3c1.9 0 3.3 1.4 3.3 3.3 0 .1 0 .3-.1.5 0 .2-.1.3-.3.3h-4.8c.1.9.9 1.9 2 1.9.7 0 1.2-.3 1.6-.5.2-.1.3-.2.5 0l.5.7c.1.1.2.3-.1.5-.5.5-1.4.9-2.6.9-2.2 0-3.6-1.7-3.6-3.8.1-2.1 1.5-3.8 3.6-3.8zm1.7 2.9c-.1-.9-.7-1.6-1.6-1.6-.9 0-1.7.7-1.8 1.6h3.4zm3.3-2.4c0-.2.1-.3.3-.3h.5c.1 0 .3.1.3.3l.2.6c.1-.2.8-1 2.1-1 .7 0 1.5.2 1.3.7l-.3.8c-.1.2-.3.2-.4.1-.1-.1-.4-.1-.6-.1-1 0-1.5.7-1.6.9v4.5c0 .3-.2.3-.5.3H54c-.2 0-.3-.1-.3-.3l-.1-6.5zm6 0c0-.2.1-.3.3-.3h.5c.1 0 .3.1.3.3l.2.6c.1-.2.8-1 2.1-1 .7 0 1.5.2 1.3.7l-.3.8c-.1.2-.3.2-.4.1-.1-.1-.4-.1-.6-.1-1 0-1.5.7-1.6.9v4.5c0 .3-.2.3-.5.3H60c-.2 0-.3-.1-.3-.3l-.1-6.5zm8.3 2.3c.7 0 1.4.2 1.4.2 0-1.1-.2-1.5-1.1-1.5-.8 0-1.6.2-2 .3-.2.1-.3-.1-.4-.3l-.1-.7c-.1-.2.1-.3.2-.4.1-.1 1.1-.4 2.5-.4 2.3 0 2.5 1.4 2.5 3.2v3.8c0 .2-.1.3-.3.3h-.5c-.1 0-.2-.1-.3-.3l-.2-.5c-.4.4-1.1.9-2.2.9-1.3 0-2.3-.9-2.3-2.4-.1-1.2 1-2.2 2.8-2.2zm-.2 3.4c.7 0 1.4-.5 1.6-.9v-1.1c-.1-.1-.6-.3-1.3-.3-.9 0-1.4.5-1.4 1.2.1.6.5 1.1 1.1 1.1zm5.9-4.6h-.7c-.2 0-.3-.1-.3-.3v-.8c0-.2.1-.3.3-.3h.7v-1.9c0-.2.1-.3.3-.3h1c.2 0 .3.1.3.3v2H77c.2 0 .3.1.3.3v.8c0 .2-.1.3-.3.3h-1.8v3.6c0 .6.2.7.5.7.4 0 .9-.2 1.1-.3s.3 0 .4.1l.3.8c.1.2 0 .3-.1.4-.2.1-1.2.5-2.1.5-1.4 0-1.8-.9-1.8-2.2.1.1.1-3.7.1-3.7zM83.8 90c0-.2.1-.3.3-.3h4c2.2 0 4 1.8 4 4s-1.8 4-4 4h-2.6v4.2c0 .2-.1.3-.3.3h-1.1c-.2 0-.3-.1-.3-.3V90zm4.3 5.9c1.2 0 2.3-1 2.3-2.3 0-1.2-1-2.2-2.3-2.2h-2.5v4.4h2.5zm8.1-1c1.9 0 3.3 1.4 3.3 3.3 0 .1 0 .3-.1.5 0 .2-.1.3-.3.3h-4.8c.1.9.9 1.9 2 1.9.7 0 1.2-.3 1.6-.5.2-.1.3-.2.5 0l.5.7c.1.1.2.3-.1.5-.5.5-1.4.9-2.6.9-2.2 0-3.6-1.7-3.6-3.8.1-2.1 1.5-3.8 3.6-3.8zm-1.7-2.5-.3-.5c-.1-.1 0-.3.1-.3l2.8-1.6c.1-.1.4-.1.5.1l.4.8c.1.2.1.3-.1.4l-3 1.3c-.2 0-.3 0-.4-.2zm3.3 5.4c-.1-.9-.7-1.6-1.6-1.6-.9 0-1.7.7-1.8 1.6h3.4zm3.4-2.4c0-.2.1-.3.3-.3h.5c.1 0 .3.1.3.3l.2.6c.1-.2.8-1 2.1-1 .7 0 1.5.2 1.3.7l-.4.9c-.1.2-.3.2-.4.1-.1-.1-.4-.1-.6-.1-1 0-1.5.7-1.6.9v4.5c0 .3-.2.3-.5.3h-.9c-.2 0-.3-.1-.3-.3v-6.6zm9-.5c1.9 0 3.3 1.4 3.3 3.3 0 .1 0 .3-.1.5 0 .2-.1.3-.3.3h-4.8c.1.9.9 1.9 2 1.9.7 0 1.2-.3 1.6-.5.2-.1.3-.2.5 0l.5.7c.1.1.2.3-.1.5-.5.5-1.4.9-2.6.9-2.2 0-3.6-1.7-3.6-3.8 0-2.1 1.4-3.8 3.6-3.8zm1.6 2.9c-.1-.9-.7-1.6-1.6-1.6-.9 0-1.7.7-1.8 1.6h3.4zm2.8 3.9 3-5.1H115c-.2 0-.3-.1-.3-.3v-.8c0-.2.1-.3.3-.3h4.6c.3 0 .5.3.3.5l-3 5.1h2.4c.2 0 .3.1.3.3v.8c0 .2-.1.3-.3.3h-4.4c-.2 0-.3-.1-.3-.3v-.2zM82 32.7c.4.7.1 1.5-.6 1.7l-11.2 4.4c-.9.3-1.9 0-2.7-.7-.7-.7-1-1.7-.7-2.7l4.4-11.2c.3-.7 1.1-1 1.7-.6.6.3 1.2.7 1.8 1.2.5.3.7.9.5 1.5L73.4 31c0 .1-.1.1-.1.1-.1.3 0 .7.3.9.3.3.6.3.9.3l.1-.1 4.7-1.9c.5-.2 1.1 0 1.5.5.5.6.9 1.2 1.2 1.9zm-35-9c.7-.4 1.5-.1 1.7.6l4.4 11.2c.3.9 0 1.9-.7 2.7-.7.7-1.7 1-2.7.7l-11.2-4.4c-.7-.3-1-1.1-.6-1.7.3-.6.7-1.2 1.2-1.8.3-.5.9-.7 1.5-.5l4.6 1.9c.1 0 .1.1.1.1.3.1.7 0 .9-.3.3-.3.3-.6.3-.9l-.1-.1-1.9-4.7c-.2-.5 0-1.1.5-1.5.8-.6 1.4-1 2-1.3zm35 35c.4-.7.1-1.5-.6-1.7l-11.2-4.4c-.9-.3-1.9 0-2.7.7-.7.7-1 1.7-.7 2.7l4.4 11.2c.3.7 1.1 1 1.7.6.6-.3 1.2-.7 1.8-1.2.5-.3.7-.9.5-1.5l-1.9-4.6c0-.1-.1-.1-.1-.1-.1-.3 0-.7.3-.9.3-.3.6-.3.9-.3l.1.1 4.7 1.9c.5.2 1.1 0 1.5-.5.6-.7 1-1.3 1.3-2zm-35 9.1c.7.4 1.5.1 1.7-.6L53.1 56c.3-.9 0-1.9-.7-2.7-.7-.7-1.7-1-2.7-.7L38.5 57c-.7.3-1 1.1-.6 1.7.3.6.7 1.2 1.2 1.8.3.5.9.7 1.5.5l4.6-1.9c.1 0 .1-.1.1-.1.3-.1.7 0 .9.3.3.3.3.6.3.9l-.1.1-1.8 4.7c-.2.5 0 1.1.5 1.5.7.5 1.3.9 1.9 1.3zm10.8 12.6-16.5-8.1c-.3-.1-.6-.4-.9-.7l-9.2-12.8c-.3-.5-.9-.8-1.6-.8-1.1 0-1.9.9-1.9 1.9 0 .4.1.8.3 1.1l9.2 12.8c.6.8 1.4 1.5 2.3 1.9L56 83.8c.3.1.5.2.9.2 1.1 0 1.9-.9 1.9-1.9.1-.8-.3-1.5-1-1.7zm4.4 0 16.5-8.1c.3-.1.6-.4.9-.7l9.2-12.8c.3-.5.9-.8 1.6-.8 1.1 0 1.9.9 1.9 1.9 0 .4-.1.8-.3 1.1l-9.3 12.8c-.6.8-1.4 1.5-2.3 1.9l-16.5 8.1c-.3.2-.5.2-.9.2-1.1 0-1.9-.9-1.9-1.9 0-.8.4-1.5 1.1-1.7z" class="st0"></path></svg> 